<svg width="73" height="76" viewBox="0 0 73 76" fill="none" xmlns="http://www.w3.org/2000/svg">
<g clip-path="url(#clip0_99_193)">
<path d="M63.2832 53.6121C66.9022 30.4446 69.511 25.383 61.7589 22.2933C60.1822 21.6531 60.145 21.6447 60.4525 20.118C61.7298 13.7753 50.2099 9.75898 48.8213 16.0761C48.5715 17.1254 48.4573 18.6545 48.4573 18.6545L36.6859 16.4637L37.0171 14.8193C37.7086 11.5782 35.5733 7.74352 31.493 6.82811C29.7126 6.42866 27.5709 7.05318 27.0417 9.10312C26.3809 11.6146 25.3882 17.1207 25.0405 18.2703C24.0915 21.2495 26.1185 23.5045 28.2431 23.7356C30.0179 23.9702 32.1677 23.3066 33.4718 20.4893L34.0072 19.177L49.2899 22.6057L49.0225 24.5101C47.1699 30.437 55.2153 31.3009 56.324 27.3349C56.5109 26.5993 56.869 25.2065 57.1796 24.0486C58.3666 24.3149 62.5993 26.2056 62.9363 26.6496C63.4567 27.3391 62.2171 32.3397 61.726 34.9712C59.9691 34.4545 53.8949 32.2732 42.6872 29.5952C29.2618 26.3784 17.8356 24.5924 16.0552 24.193C13.7922 23.6853 17.6369 17.8779 20.8615 16.883C24.3243 15.859 24.1528 14.593 20.5611 14.5237C13.3856 14.3463 11.5433 16.7566 7.80759 31.2636C3.97191 46.0755 3.16701 54.6926 5.39542 56.9112C8.82281 60.2992 38.0992 67.972 42.5503 68.9706C44.7759 69.4699 60.7006 60.2757 60.6559 60.3066C61.7407 59.7315 62.4966 58.6735 62.6749 57.4039L63.2832 53.6121ZM30.5162 20.7264C30.4137 21.2354 29.964 21.5439 29.4739 21.4746L28.3003 21.3342C27.7283 21.2879 27.3775 20.7181 27.4586 20.1224C28.154 15.9 28.5563 10.6295 31.2458 9.59625C31.8362 9.36028 32.4618 9.91005 32.3728 10.5447C32.0277 13.4135 32.0379 13.1702 30.5162 20.7264ZM52.4184 28.0547C50.6672 27.7027 52.12 18.3712 54.0334 17.5323C55.267 16.9905 55.8037 18.1746 54.9285 22.5205C53.988 27.3838 53.1682 28.1819 52.4184 28.0547ZM36.896 62.5871C34.7116 63.0382 9.75166 56.4563 9.0214 55.2695C7.64865 53.0383 14.6603 26.4991 14.6603 26.4991C14.6603 26.4991 27.9867 29.2434 42.1068 32.8613C54.5657 36.0655 59.6247 37.8964 61.0929 38.3074C61.493 38.4381 60.7471 50.9971 59.5169 55.1814C57.7714 53.6441 55.0115 51.7564 53.6436 51.0401C50.4573 49.3432 47.4695 49.1639 46.4819 50.9884C43.9043 55.8935 38.6329 62.2403 36.896 62.5871ZM41.1144 63.779C41.823 62.956 41.6229 63.5657 46.0981 57.8997C50.8005 51.8757 49.9985 52.3913 52.5835 53.9943C53.7578 54.7078 56.4463 56.375 58.1615 57.2915C53.4252 60.403 47.5004 62.1016 41.1144 63.779Z" fill="black"/>
<path d="M37.6101 36.5171C34.346 35.7848 30.7052 34.8044 29.5128 34.3733C27.0906 33.5024 24.5713 33.3053 25.1591 36.5473C25.7121 39.5766 29.2417 42.4556 29.2565 39.8808L29.2916 38.743C41.0131 41.3727 42.0755 41.4882 40.0507 42.3024C38.8252 42.805 32.7527 48.3172 30.9419 50.571C30.1647 51.5422 29.0593 52.6038 28.4532 52.9178C27.1432 53.647 27.2475 54.2844 28.8332 55.4583C31.2966 57.2795 34.0565 57.2441 34.4192 55.443C34.9475 52.8198 39.1097 48.5158 44.6315 44.9671L45.8382 44.1738C46.7747 43.5655 46.998 42.2654 46.3766 41.3075C43.9242 37.8927 44.1306 38.0209 37.6101 36.5171Z" fill="black"/>
</g>
<defs>
<clipPath id="clip0_99_193">
<rect width="60.4795" height="63.5372" fill="white" transform="matrix(0.975745 0.218908 -0.19742 0.980319 13.1807 0)"/>
</clipPath>
</defs>
</svg>
