<svg width="83" height="88" viewBox="0 0 83 88" fill="none" xmlns="http://www.w3.org/2000/svg">
<g clip-path="url(#clip0_99_200)">
<path fill-rule="evenodd" clip-rule="evenodd" d="M49.5354 8.87899C47.7519 12.7911 46.9769 14.9274 45.2681 20.652C43.7959 25.5355 43.8351 25.473 42.4312 25.0512C39.4888 24.0963 31.8171 26.2941 30.5071 28.5245C29.8693 29.5711 30.5194 30.4909 31.4819 29.9044C34.1102 28.3413 37.2291 28.1438 40.2919 28.7154C43.0395 29.2473 42.9918 29.1602 41.8719 33.4806C40.6544 38.0928 39.2866 45.3122 38.7578 49.7756L38.3548 53.1949L35.7022 51.8313C29.3982 48.5515 24.2956 48.1391 22.7232 50.7613C22.1522 51.7287 22.4486 51.9351 26.4321 53.1845C29.9225 54.2697 34.0512 56.3206 37.4719 58.6867C40.2413 60.5988 43.4315 58.6547 43.4765 53.4411C43.5039 49.67 44.6091 41.8368 45.9361 36.1515L47.1121 31.0614L48.7479 32.3094C63.3689 43.4863 57.3456 70.4168 40.127 70.847C22.5381 71.2706 12.0193 44.6673 25.3884 33.5791C28.0102 31.4006 27.5094 30.3513 24.4703 31.7C16.5835 35.113 12.2348 49.9541 16.2303 59.6722C23.871 78.1989 46.3165 79.6149 58.068 62.3523C65.2122 51.8837 60.7036 32.6481 49.9726 27.5767C49.1835 27.2063 48.4925 26.8146 48.413 26.6694C48.0797 26.0601 50.4618 18.4156 53.3689 10.9936C56.6342 2.61784 52.4702 2.44622 49.5354 8.87899Z" fill="black"/>
</g>
<defs>
<clipPath id="clip0_99_200">
<rect width="61.185" height="62.8582" fill="white" transform="matrix(0.853938 -0.520375 0.479898 0.877324 0.177979 31.9585)"/>
</clipPath>
</defs>
</svg>
