<svg width="72" height="76" viewBox="0 0 72 76" fill="none" xmlns="http://www.w3.org/2000/svg">
<g clip-path="url(#clip0_99_194)">
<path fill-rule="evenodd" clip-rule="evenodd" d="M23.7387 4.25431C21.0659 4.59908 21.1602 4.53446 20.3349 6.41034C18.9336 9.53089 14.232 38.5323 14.1249 44.5195C14.116 45.9775 15.6677 46.7548 19.4401 47.2149C21.3024 47.4608 23.56 47.9673 24.461 48.3413C26.7831 49.3346 27.5028 49.1952 28.1392 47.4488C28.9857 45.0625 37.8451 25.1094 40.3313 17.2083C40.801 15.6743 40.5317 13.995 39.6099 12.7096C38.6881 11.4243 32.8914 3.04462 23.7387 4.25431ZM34.3663 11.2756C35.0644 11.6469 35.1623 11.9694 34.8021 12.7476C34.5694 13.2964 24.075 39.7529 23.0371 42.483C22.4892 43.9916 22.4503 43.9829 20.8796 43.5015L19.2693 43.0116C21.2478 30.3596 22.7707 21.3837 23.5889 11.2621C23.6809 9.99494 24.7218 9.06897 25.9309 9.12548C28.8243 9.30257 31.8768 9.90131 34.3663 11.2756ZM46.8426 22.4474C45.676 22.7867 45.4295 23.2041 42.6798 29.5858C36.6349 43.6441 35.1822 47.8269 35.807 49.1691C36.6909 51.0422 42.6522 54.5693 45.799 55.1034C47.1778 55.327 48.597 54.7438 49.476 53.61C55.5303 45.565 59.1665 40.8416 62.5316 35.2419C63.2634 34.0322 63.211 32.4746 62.3812 31.3437C58.8409 26.2984 50.2649 21.4118 46.8426 22.4474ZM54.2113 28.4803C57.8976 30.9821 58.4461 31.4914 57.9575 31.897C57.6106 32.2058 45.0858 50.564 44.5666 50.9196C43.9919 51.3491 41.0074 49.6058 41.3956 49.0919C42.0612 48.2107 45.3373 40.8305 48.3187 33.2985C49.9823 29.0773 51.1098 26.7111 51.4211 26.7809C51.7244 26.8918 52.9565 27.6406 54.2113 28.4806L54.2113 28.4803ZM13.4549 49.8652C2.23791 51.4278 4.64348 62.9166 16.787 65.641C24.0266 67.2652 28.5734 65.4942 28.9686 62.3198C29.3828 58.8488 20.3179 48.9147 13.4552 49.8652L13.4549 49.8652ZM36.4852 58.1235C28.0538 60.3969 30.5703 68.3038 40.4174 70.5129C46.567 71.8926 52.1903 68.8174 50.6499 64.9511C49.283 61.6386 40.0547 57.1638 36.4852 58.1235ZM22.3544 57.1862C25.0967 60.3345 24.254 61.6912 19.2384 62.1546C13.8948 62.6306 10.1589 60.3753 10.6883 57.7462C10.8976 56.505 16.7694 50.7806 22.3544 57.1862ZM43.4203 62.4705C47.5896 66.4113 43.7404 69.9703 38.6719 66.8583C36.1378 65.3021 35.9038 63.2314 38.0324 61.3475C39.6422 59.8194 40.8876 60.0989 43.4203 62.4705Z" fill="black"/>
</g>
<defs>
<clipPath id="clip0_99_194">
<rect width="60.4795" height="63.5372" fill="white" transform="matrix(0.975746 0.218908 -0.19742 0.980319 12.7322 0.28125)"/>
</clipPath>
</defs>
</svg>
