<svg width="61" height="65" viewBox="0 0 61 65" fill="none" xmlns="http://www.w3.org/2000/svg">
<path d="M20.1213 18.207C20.2741 20.2867 20.3932 22.4202 20.3932 22.958C20.3932 24.8047 20.8348 25.3963 21.9559 25.0557C22.9241 24.7688 23.0089 20.7349 22.1596 16.3603C22.1086 16.0735 22.3125 15.8046 22.5842 15.8046L23.06 15.8225C24.1301 15.8404 24.5208 15.8583 24.4699 15.1412C24.4529 14.8543 24.113 12.9539 23.6883 6.51757C23.3656 1.60515 22.9071 0.0453707 22.4825 2.42985C22.3466 3.18286 22.5334 13.2228 22.6863 13.9938C22.7033 14.0834 22.6693 14.191 22.6014 14.2448C22.5334 14.2986 22.4315 14.3165 22.3466 14.2806C20.1044 13.3125 19.7645 13.4021 20.1213 18.207Z" fill="black"/>
<path d="M14.7366 15.0334C15.9426 14.5673 15.9766 14.4776 15.467 13.0254C15.1782 12.2186 13.9382 6.98351 13.9382 6.55322C13.9382 6.48151 14.227 6.73251 14.5837 7.12693C15.7388 8.39986 16.9108 8.09508 18.2527 6.17673C18.6944 5.54922 19.3228 4.86795 19.6456 4.68866C20.291 4.31216 20.359 4.16873 19.9513 4.00738C19.3738 3.7743 17.6242 4.65281 16.5541 5.74644L16.0105 6.28429C14.0741 4.18667 12.1037 2.93166 12.3755 4.7783C12.4435 5.28029 12.6133 6.14087 12.8851 7.64687C13.4287 10.6051 13.4456 10.4437 12.5624 10.372C10.7279 10.2286 8.31584 13.7605 9.50486 14.8541C10.3542 15.6968 12.8511 15.7685 14.7366 15.0334ZM11.4922 12.5055C12.0018 11.1609 13.3267 10.9636 13.7004 12.1649C14.3459 14.2266 14.21 14.4776 12.4774 14.4776C11.1865 14.4956 10.9317 13.9936 11.4922 12.5055Z" fill="black"/>
<path d="M14.4139 30.3804C14.4818 29.9681 11.9339 27.3147 8.70657 24.4282L6.83809 22.7608C6.6003 22.5457 6.66823 22.1333 6.97399 22.0437L7.50056 21.8644C9.19917 21.2548 9.25012 21.4879 6.80412 18.0815L5.02059 15.5715C2.59157 12.165 1.55542 11.161 1.55542 12.2188C1.55542 12.5953 3.23704 15.4818 5.00359 18.1352C6.41345 20.2508 6.82111 20.95 6.61728 20.95C6.6003 20.95 5.93783 21.0755 5.17345 21.201C2.9143 21.6134 2.62554 21.954 3.88251 22.6891C4.7658 23.209 9.08026 27.0995 11.0507 29.1792C12.8512 31.0797 14.1931 31.5637 14.4139 30.3804Z" fill="black"/>
<path d="M58.8325 19.9999C57.9493 18.1712 53.397 13.2947 51.7154 12.3624C48.7768 10.7309 48.0803 10.5337 45.7872 10.5516C45.0228 10.5695 43.6809 10.7129 42.7637 10.8922C38.67 11.7169 36.1221 13.1691 31.5698 17.2748C28.6652 19.8923 23.7732 27.1893 23.7732 28.8925C23.7732 29.4841 23.3316 29.52 21.9047 29.0718C18.4396 27.9781 15.7727 29.5738 11.0166 35.6157C7.70433 39.811 8.34981 40.1695 9.01226 41.1556L8.50269 42.1058C6.31147 46.2115 7.26269 56.5562 16.5201 57.8471C18.5415 58.1339 21.8028 57.6499 22.805 56.9148C23.3995 56.4845 23.5354 56.5741 23.6883 57.5064C24.8433 65.1081 38.4662 65.9866 44.4113 58.8511C45.2267 57.865 45.4475 57.7036 45.7023 57.8471C46.6705 58.3849 47.5877 57.4347 50.1866 53.1857C53.2441 48.2015 53.2271 46.1218 50.1526 42.052L48.9806 40.5102L50.4414 39.0221C51.6134 39.793 51.7493 40.1337 52.9384 38.1974C53.363 37.5161 53.9745 36.6555 54.2803 36.3149C54.586 35.9742 54.8578 35.6157 54.8578 35.5619C54.8578 35.4902 55.3844 34.6834 56.0298 33.769C58.9684 29.6275 60.3103 23.0299 58.8325 19.9999ZM29.6844 21.9541C30.9413 20.0358 34.5764 16.1991 36.0881 15.1592C41.3369 11.5914 46.1439 10.5874 48.7598 12.0576C53.8047 14.9082 53.7707 18.4581 48.6918 27.5478C48.1653 28.4801 47.7066 29.3766 47.6387 29.5558C47.5707 29.771 47.3839 29.8785 47.0442 29.8785C46.4836 29.8785 45.8891 29.7889 46.2628 29.251C51.4606 21.4163 52.5817 17.0059 48.8107 14.2628C44.5472 11.1612 36.8355 14.8365 30.8394 22.4382C29.5655 24.0518 29.0389 22.9402 29.6844 21.9541ZM41.6596 34.54C41.8804 34.773 41.7105 34.9165 41.167 35.4902C37.7867 34.5041 37.0733 33.8228 33.4723 36.3149C32.8268 36.7631 32.7589 36.799 31.8756 35.4185C31.5189 34.8627 31.7227 33.6794 32.1983 33.6794C32.589 33.6794 32.4701 33.1953 31.9435 32.5678C31.2811 31.779 31.5698 31.1515 32.4361 31.528C33.7271 32.0838 34.1008 31.779 36.1731 28.5339C39.1456 23.8545 43.562 20.0179 47.4858 18.6911C48.3181 18.4222 49.779 18.3684 49.779 18.6194C49.779 19.3545 48.0464 23.5318 47.0782 25.1633C46.7215 25.755 46.2288 26.6155 45.9741 27.0996C45.4475 28.0857 42.1692 32.765 41.7445 33.1236C41.4048 33.3925 41.3538 34.2173 41.6596 34.54ZM32.8778 27.8526C33.5402 28.5877 33.8799 28.4263 33.761 28.8208C33.7271 28.9104 33.1835 30.3626 32.8947 30.1296C32.5041 29.8068 30.0411 27.7271 29.6504 27.494C29.3107 27.2968 29.4466 27.2072 30.6356 25.6295C31.1452 26.1136 32.4531 27.3865 32.8778 27.8526ZM31.5868 24.3566L33.1325 22.3306C38.0076 15.9839 43.9697 12.6134 47.214 14.3883C48.3012 14.9799 49.3543 16.2708 49.677 17.4361C49.779 17.7768 49.694 17.7947 48.1143 17.7947C44.6152 17.7947 38.704 21.9183 35.1369 26.8486L34.6783 27.4761C32.8608 25.504 32.7928 25.4323 31.5868 24.3566ZM46.1269 30.8825L47.0782 30.9901L46.3477 32.4423C45.3965 34.3428 44.9549 34.02 43.3582 33.6435C45.2267 30.9184 45.3626 30.8825 46.1269 30.8825ZM27.8499 24.8765C28.6652 23.7828 29.7523 24.3745 29.0899 25.5219C28.6992 26.1853 28.0877 26.0956 27.8499 26.0239C27.4252 25.8984 27.2384 25.6833 27.8499 24.8765ZM27.9348 27.763C28.3085 27.9781 29.0389 28.4263 29.5825 28.9104C31.1112 30.3088 30.9413 30.2909 30.5846 30.7929L30.3978 31.0618C30.3298 31.1515 30.194 31.1873 30.109 31.1156C29.4466 30.5957 27.0345 28.7311 26.9666 28.6773C26.8477 28.5339 27.3403 27.4223 27.9348 27.763ZM23.8921 31.2053C23.96 31.0439 24.3677 30.6853 24.7924 30.7033L26.474 31.4563C26.6099 31.51 26.7628 31.4742 26.8647 31.3666C27.0855 31.0977 27.2554 30.8646 27.3573 30.6853C27.6121 30.1654 30.2619 32.1555 30.2619 32.8726C30.2619 33.1057 30.143 33.3925 30.0071 33.5001C29.5655 33.8945 30.0411 34.1635 30.8904 35.0599C31.349 35.544 31.349 36.2611 31.2811 36.3687C31.2131 36.4763 30.7375 36.3687 30.4148 36.0101C29.2937 34.791 27.3403 33.0878 24.4017 31.7611C24.011 31.5818 23.8581 31.3128 23.8921 31.2053ZM9.9635 38.8787C11.1185 37.534 16.3163 31.2411 17.6072 30.506C18.8982 29.7889 20.6138 29.8427 21.565 29.8427C22.9918 29.8606 22.9749 30.8288 21.8028 30.8825C20.5458 30.9184 19.6965 30.7929 18.2697 31.6893C17.1486 32.3885 12.3076 38.4663 10.8298 39.8468C10.3881 40.2233 9.55583 39.3448 9.9635 38.8787ZM23.3316 53.2574C23.2466 54.5662 23.1787 54.8351 22.9239 54.9247C22.754 54.9785 22.1425 55.355 21.565 55.7674C14.5328 60.7336 7.41557 49.8509 10.7279 42.805C12.2227 39.6317 15.1273 37.05 16.5541 35.0061C18.2867 32.5499 19.6795 31.5997 21.633 31.8507C22.9239 32.012 24.9962 32.9802 27.2893 34.7551C30.8734 37.5161 31.2471 38.0898 29.6844 39.6855C28.6992 40.6895 27.7819 41.7293 27.0685 42.5361C26.8137 42.823 26.7967 43.2353 27.0006 43.558L27.5271 44.3469L26.9666 44.9744C24.9283 47.2334 23.5014 50.4964 23.3316 53.2574ZM42.7977 58.6359C32.7079 68.6042 20.41 58.7973 26.423 48.2553C27.3233 46.6776 28.0367 45.6377 28.3764 45.1716C28.4953 44.9923 28.7162 44.9385 28.903 45.0102C29.0559 45.064 29.2257 45.1357 29.3616 45.1716C30.0241 45.4226 30.075 45.2612 28.886 46.9465C25.3869 51.9307 26.7288 57.112 31.1791 59.1917C34.8651 60.8949 38.3643 60.7515 41.6936 57.4885C42.7467 56.4486 43.0015 55.9646 43.63 56.4307C44.2245 56.861 43.1714 58.2594 42.7977 58.6359ZM35.3577 42.321C35.4936 42.7154 35.3068 42.8767 35.018 43.0381C34.0498 43.576 31.6887 45.9784 31.2301 46.6417C29.0219 49.8509 28.8011 49.4924 30.2109 46.4804C31.2811 44.1317 34.984 41.2094 35.3577 42.321ZM35.5106 39.9544C36.6657 38.9325 38.3643 38.4125 39.3155 38.807C39.4684 38.8608 39.7232 39.0042 39.7232 39.1655C39.7232 39.56 40.3686 40.1337 40.9801 40.5998C41.2689 40.815 41.0481 41.0301 40.8442 40.9584C38.5681 40.1337 37.2941 40.0082 35.8164 40.4923C34.4745 40.9225 34.4575 40.8867 35.5106 39.9544ZM42.4749 53.5801C40.3007 58.7794 34.0328 60.7156 30.7885 57.2016C29.6674 55.9825 29.2088 53.9028 29.5145 52.6119C30.5507 48.2912 37.9396 40.815 40.6574 42.321C46.4667 45.5122 43.3922 51.3749 42.4749 53.5801ZM43.4431 42.7512C42.7127 42.0879 42.6108 41.6038 44.7511 42.6616C45.9401 43.2532 46.5686 44.1497 46.7045 44.0959C47.6047 43.7373 48.3861 45.0282 48.4201 46.5162C48.454 47.9505 47.7576 49.5641 46.7215 51.0163C45.5664 52.6478 45.0738 52.4506 45.7362 51.0342C46.9592 48.3808 45.991 45.0102 43.4431 42.7512ZM50.917 45.8529C51.0189 47.0541 50.883 49.833 49.1335 52.5402C48.3861 53.6697 47.4009 55.2474 47.0102 55.857C46.5686 56.5383 46.1439 56.7176 45.6343 56.5562C45.1247 56.3949 43.545 55.4088 44.1396 54.6737C44.5982 54.1 45.5664 54.3869 46.025 54.5662C46.1609 54.6199 46.2968 54.5662 46.3817 54.4406C48.4031 50.8908 51.5795 47.8071 48.2842 43.4863C47.9954 43.1098 47.7576 42.7333 47.7576 42.6437C47.7576 42.3389 47.0442 42.2672 46.7724 42.5361C46.5176 42.7871 46.3308 42.7154 44.7001 41.6576C43.7149 41.0122 42.5599 40.295 42.1182 40.044C41.5407 39.7213 41.3029 39.4882 41.3029 39.2014C41.3029 38.7352 40.6744 37.9822 40.2837 37.9822C40.1308 37.9822 39.6892 37.8568 39.3325 37.6954C38.4492 37.301 36.4788 37.2651 35.5106 38.1257C34.3216 39.1655 31.4509 41.9445 30.3129 42.9664C30.2449 43.0202 30.2279 43.1277 30.2789 43.2174C30.8055 44.0242 30.194 44.4544 29.3446 43.8807L28.954 43.5042C28.6822 43.2353 28.6822 42.7692 28.954 42.5002C30.2619 41.2273 33.6251 37.9643 35.1029 36.548C35.4936 36.1715 36.0032 36.0101 36.5298 36.0818C37.9906 36.279 40.6914 36.7272 41.4048 36.8528C42.0672 36.9603 42.1692 36.9245 42.8146 36.2252C43.0185 36.0101 43.1713 35.795 43.2733 35.6515C43.3582 35.526 43.5111 35.4723 43.647 35.4902C43.647 35.4902 45.0398 35.5977 45.5324 35.8129C45.9061 35.9742 47.6557 37.4444 48.437 38.1615C48.6409 38.3587 48.6579 38.6994 48.454 38.8966L47.1291 40.2054C46.9932 40.5819 47.282 40.8508 47.8255 40.8508C48.505 40.8508 50.8151 44.58 50.917 45.8529ZM51.8852 37.0679C50.7811 38.4843 50.951 38.4663 49.5921 37.1575C48.6918 36.297 47.7236 35.5798 47.0612 35.0778C47.4179 34.5758 47.8086 34.0738 48.3181 32.9981C48.8787 31.8148 48.7937 31.7969 50.4754 33.3746C52.123 34.9165 52.4628 35.3288 52.8704 35.795L51.8852 37.0679ZM53.8556 34.3786C53.2611 33.769 52.7345 33.1595 51.0699 31.9403C49.3373 30.6674 49.3543 30.9363 50.7302 28.5339C53.5838 23.5498 54.637 19.8923 54.0594 17.1672L53.8896 16.3604C56.1148 18.7987 57.6265 20.3585 57.7964 21.1115C58.5268 24.5 57.117 27.6195 53.8556 34.3786Z" fill="black"/>
<path d="M21.6327 37.4983C22.1763 37.2114 23.6031 37.8927 23.6031 38.2154C23.6031 39.2373 26.9154 40.6178 27.6288 40.0262C28.8688 39.0043 22.6349 35.7413 20.6306 36.3688C17.7769 37.2652 13.921 44.6518 14.7533 47.6279C15.5177 50.371 20.1891 51.8411 23.1107 50.2634C24.4016 49.5642 23.4844 48.9725 21.8367 49.4387C18.6943 50.3351 16.418 48.5423 16.7068 45.4048C16.8766 43.5043 20.104 38.323 21.6327 37.4983Z" fill="black"/>
</svg>
