<svg width="71" height="76" viewBox="0 0 71 76" fill="none" xmlns="http://www.w3.org/2000/svg">
<g clip-path="url(#clip0_99_195)">
<path fill-rule="evenodd" clip-rule="evenodd" d="M44.5745 11.3455C43.3845 12.1083 40.7881 18.8255 41.0626 20.4425C41.3513 22.113 42.9556 21.5611 44.1108 19.4317C47.3451 13.5249 47.5722 9.44322 44.5745 11.3455ZM25.9233 8.50077C25.0449 9.12619 26.019 18.2118 27.1228 19.4706C29.0903 21.737 30.3936 19.8395 29.6428 15.7585C28.4755 9.27581 27.5153 7.36723 25.9233 8.50077ZM58.8408 23.1078C57.3687 23.4605 51.2746 28.5788 51.0825 29.6218C50.8413 30.9317 52.4243 30.7531 54.492 29.2389C60.4476 24.8723 62.2802 22.3032 58.8408 23.1078ZM17.3 26.3162C17.6446 26.3869 20.2988 26.4785 19.1907 25.2442C17.5053 23.3879 10.9833 17.6195 10.0175 18.2017C8.70397 18.9895 15.898 26.0286 17.3 26.3162ZM48.0952 35.3531C47.9601 30.5173 41.9196 24.5959 37.0017 24.4931C24.4105 24.2258 16.9558 37.1205 24.0218 46.9275C24.5536 47.6661 24.3876 48.4374 23.5546 48.9463C22.2092 49.7778 22.1019 52.1725 23.3386 54.2639C23.4451 54.4619 23.4738 54.6942 23.4336 54.9125C23.3934 55.1309 23.243 55.3013 23.0322 55.4092C20.399 56.7571 21.778 59.7585 22.2542 60.4099C22.6892 61.0279 24.684 61.4624 26.9968 62.1132L27.1756 62.9553C27.6705 65.4482 31.2168 67.5605 32.785 66.2962C33.878 65.4128 34.9192 64.2923 34.9861 63.9285C35.0487 63.5889 35.3334 63.5969 36.7811 63.8939C40.0676 64.5682 41.9104 62.2025 40.3345 59.3619C39.8156 58.4247 40.2702 57.511 40.7298 57.6053C42.7292 58.0155 43.2141 55.8998 41.8467 53.3537C41.1744 52.083 41.3245 51.7865 43.4284 50.2042C47.8879 46.8397 50.0655 39.0298 46.5666 38.9916C43.21 38.9574 47.2063 41.0863 39.6275 49.4748L38.6092 50.5999C38.3718 50.8535 38.0417 50.962 37.7244 50.8716L37.0901 50.6911C35.6371 50.2925 35.579 49.7015 36.9035 48.3369C37.4014 47.8349 37.8259 47.3432 37.8437 47.2461C37.8571 47.1734 38.2451 46.7494 38.7253 46.3446C39.612 45.5446 40.7233 43.784 40.5834 43.3778C40.2526 42.4539 38.4275 42.9102 38.231 43.9776C38.1595 44.3655 37.7721 44.9154 37.2966 45.2961C35.7192 46.6087 35.5528 47.2543 34.7152 49.5997C34.6661 49.7612 34.5187 49.8662 34.3584 49.8539C32.797 49.7852 32.5583 49.7866 32.301 49.7589C31.6716 49.6802 31.7208 49.4133 31.8208 48.3514C31.9299 47.241 31.0853 44.5756 30.3135 43.5865C30.1378 43.3742 30.0484 42.9533 30.102 42.6622C30.3827 41.008 28.7683 40.4502 28.3497 42.0761C28.111 42.9837 28.1813 43.2498 29.0667 44.9167C30.9118 48.3664 30.9222 49.476 29.1525 49.1129C28.3021 48.9385 28.0213 48.7801 28.066 48.5376C28.1017 48.3436 27.8514 47.8895 27.5373 47.523C24.2311 43.8491 23.6024 34.0535 26.4012 30.1219C31.3068 23.2994 42.3187 25.4078 44.2143 32.4675C45.0764 35.8162 48.1643 38.0861 48.0952 35.3531ZM34.7324 35.9091C34.2421 36.1106 33.8565 36.1322 33.8144 35.9727C33.6375 35.5082 32.4572 35.4423 31.7153 35.8441C29.7557 36.9019 28.6042 38.8809 29.4896 39.6416C29.9646 40.0411 30.4867 39.7958 30.7918 39.3046C31.1971 38.6578 31.2642 38.2938 31.6547 37.4678C31.8093 37.147 32.83 36.5257 32.7491 37.7427C32.701 38.2615 32.5263 39.0814 32.361 39.979C32.084 41.4829 31.9374 42.4094 31.9495 42.9909C31.952 43.4947 32.3261 43.9239 32.8176 43.9744C33.3092 44.0249 33.7342 43.6591 33.8281 43.1497L34.1261 41.2724C34.6119 38.3765 34.6596 36.9515 35.6338 37.101C35.8865 37.1528 36.1349 37.2291 35.5465 40.683C35.1145 43.2878 35.0276 44.2769 35.97 44.4702C36.7053 44.6211 37.0283 44.0329 37.4349 41.8254C37.618 40.831 37.803 39.3082 37.9919 38.5414C38.1764 37.7989 38.6993 37.6795 39.0862 37.9101C39.6388 38.2751 39.549 39.5406 39.1526 40.1389C38.6606 40.8686 38.6963 41.5809 39.8351 41.6132C40.8317 41.6414 41.1834 41.2855 40.9133 40.5505C40.8016 40.2506 40.6975 39.6504 40.6769 39.2434C40.6035 37.441 39.4549 36.425 37.9694 36.8502C37.3414 37.0234 37.2266 36.9999 36.9992 36.5504C36.4904 35.8168 35.6579 35.5453 34.7324 35.9091ZM54.2866 44.7291C51.3075 44.8478 52.434 46.1112 56.226 46.8892C57.8117 47.2145 59.9357 47.7257 60.9334 48.0059C62.8786 48.5812 64.3875 48.2866 63.8736 47.4512C63.3367 46.6109 56.4258 44.6393 54.2866 44.7291ZM13.4487 39.0693C8.13047 38.8089 3.36128 39.9699 5.72665 40.9839C8.16069 42.012 15.5147 40.8022 15.021 39.4674C14.9553 39.1769 14.7255 39.1297 13.4487 39.0693ZM38.228 56.8151C37.411 57.7552 37.4108 57.7551 38.073 58.8222C38.8972 60.1745 38.6846 60.8107 37.4265 60.7789C31.879 60.5973 27.1685 59.757 25.3223 58.7738C23.9503 58.0645 24.4718 56.787 25.467 56.5633C25.866 56.4689 26.3147 55.3274 25.5856 54.6241C24.6306 53.7233 25.0845 52.6836 26.8986 52.8041C28.598 52.9011 32.0223 53.6037 38.6313 54.8839C39.0451 54.9688 39.2357 55.4862 39.0036 55.8414C38.812 56.1042 38.5657 56.4061 38.228 56.8151ZM33.6294 63.5243C32.7447 64.702 31.6028 64.946 30.78 64.7521C29.0423 64.3452 28.8648 62.8488 29.2728 62.7059C29.3001 62.6862 33.7254 63.3929 33.6294 63.5243Z" fill="black"/>
</g>
<defs>
<clipPath id="clip0_99_195">
<rect width="60.4561" height="63.5595" fill="white" transform="matrix(0.979596 0.200979 -0.181117 0.983462 11.7773 0.832275)"/>
</clipPath>
</defs>
</svg>
