<svg width="67" height="71" viewBox="0 0 67 71" fill="none" xmlns="http://www.w3.org/2000/svg">
<g clip-path="url(#clip0_99_198)">
<path d="M13.6145 26.9484C14.4585 26.7589 14.5058 26.7776 14.7208 27.5686C17.0044 35.6794 28.8305 32.9055 29.2538 24.1589C29.3463 22.3512 29.7471 21.5878 30.7128 21.4806C31.0946 21.4383 31.2659 21.5631 31.2966 21.8712C31.8702 27.6313 41.1106 30.5846 44.2411 25.9953C45.3525 24.3862 46.5162 21.477 46.5353 20.3005L46.5413 19.2214L47.8295 18.9347C50.0695 18.3986 50.0354 18.2826 46.4358 13.6011C40.1772 5.47591 35.6433 2.36002 33.5379 4.70259C32.9054 5.41984 32.9704 5.38866 33.3372 10.6684C33.3726 11.024 33.6281 11.3072 33.952 11.3671C35.3573 11.5707 36.8088 10.1874 35.5867 9.77179C35.069 9.58956 35.0395 9.52095 35.0161 7.91782C34.9869 5.57238 35.137 5.48384 36.7868 7.0024C40.5876 10.5112 43.0259 12.4216 44.158 14.2133C44.4523 14.66 44.4369 14.7336 44.1863 14.4977C43.8909 14.2669 42.3694 14.2679 42.393 14.5049C42.3978 14.5524 42.7712 15.1101 43.2167 15.7077C47.4982 21.5358 41.6732 30.3065 36.4838 25.8493C32.5873 22.5189 34.9644 14.9216 40.0849 14.3536C41.4997 14.1966 41.7208 13.9085 40.7504 13.5128C38.051 12.3983 33.8011 15.0986 32.1883 18.9683L31.6576 20.2494L30.0903 20.4712C29.1943 20.5946 28.5135 20.5982 28.4993 20.456C28.4521 19.9819 27.2371 19.182 26.6757 19.2443C25.957 19.324 25.9804 19.5611 26.7828 20.5505C30.2572 24.8864 25.1074 32.4558 20.1268 30.3241C13.865 27.6396 17.304 17.0246 23.9868 18.4641C25.9122 18.8737 26.2039 18.8413 25.9179 18.2499C23.9458 14.1788 16.2708 18.0499 14.9769 23.7536C14.6315 25.3017 14.5911 25.3542 13.8275 25.4389C13.1762 25.5111 13.0569 25.4525 13.1562 25.0819C13.2224 24.8349 13.5372 22.5233 13.8886 19.8959C14.9726 11.6273 16.7735 6.22683 17.6395 8.76702C18.1866 10.384 18.5572 13.6501 18.1979 13.69C17.2546 13.7946 17.4104 15.3591 18.3997 15.489C20.5202 15.805 20.6251 9.56222 18.5344 7.94877C16.1979 6.14689 13.8362 8.42203 12.9277 13.4359C12.7088 14.6584 12.2851 16.7905 11.993 18.189C10.4837 25.3784 10.9006 27.5131 13.6145 26.9484Z" fill="black"/>
<path d="M60.4256 43.2767C57.865 38.3122 57.2146 39.9901 58.6208 42.71C59.4102 44.2521 59.5401 44.6451 59.2364 44.559C54.2049 43.0561 44.759 47.3873 39.3942 53.7103L36.8335 56.7265C36.4604 54.3474 36.2561 52.98 36.0683 52.2339C35.9124 51.5802 34.8831 51.5026 34.844 52.2499C34.7965 53.1419 34.9748 54.7039 35.2226 57.1928L34.4436 56.4404C30.572 52.6759 20.3504 52.6355 11.0722 56.3729C9.5225 57.0002 9.56734 57.4506 10.5292 51.3764C11.8176 43.1089 12.0345 39.1305 12.283 37.5212C12.3918 36.7901 19.7215 35.8332 22.5475 36.1668C25.1892 36.4729 31.1875 38.5635 32.1176 39.4669C32.4202 39.7689 32.7816 41.1188 33.488 44.5635C34.5462 49.7186 34.5784 49.3555 35.024 49.4978C35.8183 49.7213 34.9807 45.1887 34.1152 39.461L36.8355 36.9064C43.2735 30.8718 49.3866 30.6969 50.4433 30.364L52.1098 32.5038C55.804 37.2227 56.4642 39.0668 56.7776 37.8816C56.8924 37.4375 52.0155 29.2789 51.3277 28.756C50.0264 27.7739 40.0622 28.4959 33.9809 36.2884C32.3908 38.3342 32.5861 38.2406 31.5673 37.5867C24.9925 33.3551 11.1808 33.0659 10.8162 37.1566C10.5877 39.6505 8.32858 49.7991 7.8028 56.3761C7.67607 58.0678 7.6961 58.497 7.99507 58.9911C8.3484 59.575 8.51033 59.605 9.43468 59.3107C9.83185 59.1947 9.91574 59.3532 10.2429 61.0424C10.602 62.824 11.1597 63.8646 11.5805 63.5303C11.8761 63.3058 11.8287 63.7424 11.519 64.2801C10.7836 65.56 11.9652 67.8494 13.2359 67.6126C13.7926 67.5029 13.9616 67.604 14.2228 68.1742C14.6564 69.1087 15.0926 69.1562 15.9674 68.3641C16.8847 67.5434 18.5432 66.185 21.4345 65.1213C24.3258 64.0576 33.7191 63.7585 34.6848 64.1068C35.2745 64.3289 35.5712 64.344 35.6646 64.1419C35.7403 63.9897 36.485 63.7153 37.3538 63.5471C40.2698 62.9599 44.9071 61.8703 46.9804 61.2569C50.0679 60.3392 55.9933 59.8735 58.0203 60.3916C60.279 60.9559 60.8701 60.0515 59.2428 58.5305C58.6672 57.9952 58.6375 57.9266 59.0535 58.0002C62.3074 58.526 62.7759 57.2997 60.5625 53.9983C59.5758 52.526 59.5827 52.5971 60.773 52.4651C62.1878 52.3081 62.064 51.7467 60.1377 49.2762C58.3946 47.049 58.3923 47.0253 60.2527 47.466C62.4842 47.9853 62.5077 47.3117 60.4256 43.2767ZM20.0344 61.7776C17.3429 62.3398 14.9669 64.0174 14.7293 64.1396C14.3593 64.3005 14.0863 64.0672 14.1821 63.4334C14.2342 63.0442 14.3016 62.5814 14.3052 62.3892C14.3621 61.1367 21.8326 59.0857 25.4896 59.3271C29.0769 59.5522 29.6194 59.7557 32.7646 60.5571C27.5614 60.7509 22.9032 61.1718 20.0344 61.7776ZM34.8392 58.8171C23.1828 56.6831 18.7245 57.0579 12.9686 60.5963C12.2003 61.0889 11.5324 61.4506 11.5052 61.4057C11.4532 61.3396 11.1863 60.0271 10.8945 58.6934C16.2126 56.6894 20.442 54.9261 25.8602 55.0679C27.476 55.1044 29.7169 55.7186 31.4602 56.5797C34.4469 58.0698 35.8581 59.0156 34.8392 58.8171ZM41.1149 55.0293C46.7717 48.6739 50.9787 46.4577 56.112 47.1584C56.6403 47.2196 58.9531 49.6952 58.7521 49.9571C58.7119 50.0095 58.2332 49.9907 57.6801 49.9083C53.3836 49.4023 51.041 50.0457 45.6613 53.2547C44.2476 54.1066 42.7662 54.966 42.3785 55.1767C40.785 56.0485 37.0518 59.6022 41.1149 55.0293ZM57.8696 54.7763C55.0979 54.5326 51.9857 54.9737 49.2469 55.9726C47.1877 56.7283 40.904 58.8393 40.683 58.6721C40.5612 58.5898 43.5806 56.5293 45.0854 55.4516C48.1376 53.2676 51.9613 52.2203 56.6218 52.2785C57.6218 52.2874 57.7683 52.391 58.722 53.5314C59.9853 55.0449 60.0232 54.9688 57.8696 54.7763Z" fill="black"/>
</g>
<defs>
<clipPath id="clip0_99_198">
<rect width="60.3686" height="63.6427" fill="white" transform="matrix(0.993903 -0.110259 0.0990893 0.995079 0 7.19739)"/>
</clipPath>
</defs>
</svg>
