<svg width="61" height="65" viewBox="0 0 61 65" fill="none" xmlns="http://www.w3.org/2000/svg">
<g clip-path="url(#clip0_99_199)">
<path fill-rule="evenodd" clip-rule="evenodd" d="M22.6795 1.66205C21.5299 2.14003 21.7041 3.05934 23.0279 3.42707C24.6654 3.86839 25.2578 8.28107 23.6553 8.28107C21.6694 8.28107 14.8409 11.5906 12.4022 13.7233C11.8446 14.238 11.6009 13.9072 10.2424 12.7304C12.1235 10.6343 13.5518 9.38423 10.7299 9.38423C8.77905 9.38423 3.44868 13.9438 3.44868 15.6353C3.44868 16.2604 5.4693 16.4076 6.68868 15.856C8.08225 15.2309 7.9428 15.3411 9.37138 16.9592L8.63958 17.6577C-0.940969 26.7403 -7.63018 58.8791 25.7456 63.4021C41.3533 65.5348 53.3379 56.2681 54.9404 40.824L55.1843 38.581L57.0655 38.3236C60.8978 37.8456 60.3752 32.2931 56.4732 31.6309C55.6719 31.484 54.9752 31.1899 54.9057 30.9324C52.4319 21.1878 47.8333 14.4218 44.872 16.003C43.9663 16.481 44.1055 16.812 45.6385 17.7313C51.6654 21.335 53.6863 39.3165 49.0875 48.6565C38.7754 69.5795 7.55941 63.8064 5.39958 40.5666C3.30921 18.1357 21.9133 3.464 40.099 13.1717C42.503 14.4588 45.3599 14.4588 47.1716 13.1348L48.4951 12.1788L49.3314 13.1348C52.1185 16.2974 54.4526 13.7969 51.7701 10.561C48.4951 6.58965 43.4784 5.33928 45.4296 8.97958C46.8579 11.6639 44.872 12.3627 40.9699 10.5977C39.4372 9.89888 37.0681 9.05317 35.6746 8.7224L33.1661 8.13386C33.1661 7.06764 33.2011 5.19209 32.9571 3.83173C32.7479 2.72857 32.783 2.69162 33.9673 2.69162C35.3262 2.69162 35.988 2.06671 35.2217 1.55179C34.4899 1.18406 23.69 1.22073 22.6795 1.66205ZM30.6229 7.91335H27.4876V5.74367C27.4876 3.42707 27.557 3.35374 29.8563 3.20655C30.7273 3.13294 30.6229 3.28015 30.6229 7.91335ZM27.0345 13.282C26.1287 14.238 27.1042 18.7242 28.2888 19.1286C29.6821 19.6066 30.5881 15.7455 29.5429 13.7233C29.1945 13.0612 27.5223 12.7671 27.0345 13.282ZM19.6487 18.2829C20.3108 21.5558 24.1081 28.7997 25.6759 31.962L25.0138 33.249C24.1778 34.8302 24.1776 36.2644 24.9441 36.9999C28.1494 40.0519 34.0023 46.4501 36.4061 48.1415C39.0888 49.9802 45.1857 49.3919 40.8655 42.9568C38.9843 40.1252 35.1172 36.4483 33.0269 33.727C32.1559 32.5505 31.5983 32.1825 30.8668 32.1825C29.7171 32.1825 29.1945 32.8813 29.9958 33.3593C30.6576 33.727 30.7623 35.529 30.2047 36.6321C29.299 38.3972 25.8498 36.4483 26.6513 34.6463C26.895 34.1317 27.3481 33.6903 27.6962 33.6903C28.637 33.6903 29.4035 32.2195 28.672 31.7781C28.3583 31.5943 27.6268 30.4175 27.0345 29.1674C24.6307 24.0929 22.6448 20.3421 21.286 18.2829C19.8229 15.8191 19.1261 15.6722 19.6487 18.2829ZM43.4087 34.4625C42.1546 35.4554 43.2695 36.0436 46.405 35.97C49.8192 35.8967 51.352 35.3082 50.3068 34.4994C49.4358 33.8742 44.2099 33.8376 43.4087 34.4625ZM7.31575 35.1243C5.9569 35.7128 7.03708 36.4849 9.51058 36.7791C12.0538 37.0732 13.2732 36.7791 13.1337 35.9333C12.9248 34.9038 9.12717 34.3889 7.31575 35.1243ZM27.6962 52.8483C27.3481 55.496 27.8707 57.0036 29.0553 57.0036C30.5881 57.0036 30.9018 56.1212 30.2745 53.6207C29.5429 50.6789 28.0099 50.2376 27.6962 52.8483Z" fill="black"/>
</g>
<defs>
<clipPath id="clip0_99_199">
<rect width="60.331" height="63.6783" fill="white" transform="translate(0.0964355 0.664551)"/>
</clipPath>
</defs>
</svg>
