<svg width="189" height="67" viewBox="0 0 189 67" fill="none" xmlns="http://www.w3.org/2000/svg">
<g clip-path="url(#clip0_99_188)">
<path fill-rule="evenodd" clip-rule="evenodd" d="M168.936 25.0212C163.837 22.2014 158.401 23.4823 152.853 28.8616C147.154 34.3604 149.338 42.5322 157.279 45.4193L158.75 45.9473C158.697 47.6011 158.846 47.7274 157.329 47.4889C156.126 47.2973 155.733 47.8147 156.03 48.3948C156.432 49.1722 156.547 56.1472 156.149 57.4833C154.679 62.4103 160.695 65.3182 163.026 62.4606C164.086 61.1617 164.578 59.0282 164.498 57.1516C164.418 55.0567 164.651 53.6091 165.461 51.2223C166.255 48.9048 165.854 47.909 164.066 47.6344C163.299 47.5087 163.239 47.4854 163.227 47.0363C163.171 46.14 163.518 45.8575 165.145 45.4476C171.41 43.8246 174.87 40.7134 175.344 36.3173C176.008 30.19 172.087 29.2955 172.705 31.8996C174.222 38.2205 168.344 43.5133 159.499 43.7831C154.58 43.9376 150.728 38.3879 152.736 34.052C155.945 27.1664 166.358 23.286 170.795 29.0554C172.213 31.1553 175.954 28.9117 168.936 25.0212ZM164.573 28.1661C163.385 28.1507 163.335 28.9587 165.365 29.1626C166.778 29.3129 167.288 29.5512 167.87 30.3711C168.647 31.437 169.518 31.7056 169.717 30.942C169.794 30.6777 168.227 28.2059 164.573 28.166L164.573 28.1661ZM170.774 33.039C170.011 32.3132 169.348 32.5762 169.312 33.615C169.26 34.9142 170.517 36.1931 171.122 35.4703C171.546 34.9781 171.358 33.586 170.774 33.039ZM163.318 49.7167C162.939 50.3016 162.368 52.9994 162.348 54.16C162.34 55.5516 162.156 56.3278 162.056 58.2165C161.84 62.0633 157.237 62.1829 158.132 57.895C159.258 52.4865 158.145 49.5476 158.583 49.1772C159.142 48.7167 163.636 49.2179 163.318 49.7167Z" fill="black"/>
</g>
<path d="M22.2103 16.12V33.76C22.2103 36.24 22.8103 38.08 24.0103 39.28C25.237 40.48 26.9303 41.08 29.0903 41.08C31.2236 41.08 32.8903 40.48 34.0903 39.28C35.317 38.08 35.9303 36.24 35.9303 33.76V16.12H39.5703V33.72C39.5703 36.04 39.1036 38 38.1703 39.6C37.237 41.1733 35.9703 42.3467 34.3703 43.12C32.797 43.8933 31.0236 44.28 29.0503 44.28C27.077 44.28 25.2903 43.8933 23.6903 43.12C22.117 42.3467 20.8636 41.1733 19.9303 39.6C19.0236 38 18.5703 36.04 18.5703 33.72V16.12H22.2103ZM56.3225 21.68C58.9892 21.68 61.1492 22.4933 62.8025 24.12C64.4558 25.72 65.2825 28.04 65.2825 31.08V44H61.6825V31.6C61.6825 29.4133 61.1358 27.7467 60.0425 26.6C58.9492 25.4267 57.4558 24.84 55.5625 24.84C53.6425 24.84 52.1092 25.44 50.9625 26.64C49.8425 27.84 49.2825 29.5867 49.2825 31.88V44H45.6425V22.08H49.2825V25.2C50.0025 24.08 50.9758 23.2133 52.2025 22.6C53.4558 21.9867 54.8292 21.68 56.3225 21.68ZM73.1084 18.52C72.4151 18.52 71.8284 18.28 71.3484 17.8C70.8684 17.32 70.6284 16.7333 70.6284 16.04C70.6284 15.3467 70.8684 14.76 71.3484 14.28C71.8284 13.8 72.4151 13.56 73.1084 13.56C73.7751 13.56 74.3351 13.8 74.7884 14.28C75.2684 14.76 75.5084 15.3467 75.5084 16.04C75.5084 16.7333 75.2684 17.32 74.7884 17.8C74.3351 18.28 73.7751 18.52 73.1084 18.52ZM74.8684 22.08V44H71.2284V22.08H74.8684ZM84.7122 41.04H94.4722V44H81.0722V16.12H84.7122V41.04ZM107.898 44.36C105.844 44.36 103.978 43.8933 102.298 42.96C100.644 42.0267 99.3378 40.7067 98.3778 39C97.4445 37.2667 96.9778 35.2667 96.9778 33C96.9778 30.76 97.4578 28.7867 98.4178 27.08C99.4045 25.3467 100.738 24.0267 102.418 23.12C104.098 22.1867 105.978 21.72 108.058 21.72C110.138 21.72 112.018 22.1867 113.698 23.12C115.378 24.0267 116.698 25.3333 117.658 27.04C118.644 28.7467 119.138 30.7333 119.138 33C119.138 35.2667 118.631 37.2667 117.618 39C116.631 40.7067 115.284 42.0267 113.578 42.96C111.871 43.8933 109.978 44.36 107.898 44.36ZM107.898 41.16C109.204 41.16 110.431 40.8533 111.578 40.24C112.724 39.6267 113.644 38.7067 114.338 37.48C115.058 36.2533 115.418 34.76 115.418 33C115.418 31.24 115.071 29.7467 114.378 28.52C113.684 27.2933 112.778 26.3867 111.658 25.8C110.538 25.1867 109.324 24.88 108.018 24.88C106.684 24.88 105.458 25.1867 104.338 25.8C103.244 26.3867 102.364 27.2933 101.698 28.52C101.031 29.7467 100.698 31.24 100.698 33C100.698 34.7867 101.018 36.2933 101.658 37.52C102.324 38.7467 103.204 39.6667 104.298 40.28C105.391 40.8667 106.591 41.16 107.898 41.16ZM133.484 44.36C131.43 44.36 129.564 43.8933 127.884 42.96C126.23 42.0267 124.924 40.7067 123.964 39C123.03 37.2667 122.564 35.2667 122.564 33C122.564 30.76 123.044 28.7867 124.004 27.08C124.99 25.3467 126.324 24.0267 128.004 23.12C129.684 22.1867 131.564 21.72 133.644 21.72C135.724 21.72 137.604 22.1867 139.284 23.12C140.964 24.0267 142.284 25.3333 143.244 27.04C144.23 28.7467 144.724 30.7333 144.724 33C144.724 35.2667 144.217 37.2667 143.204 39C142.217 40.7067 140.87 42.0267 139.164 42.96C137.457 43.8933 135.564 44.36 133.484 44.36ZM133.484 41.16C134.79 41.16 136.017 40.8533 137.164 40.24C138.31 39.6267 139.23 38.7067 139.924 37.48C140.644 36.2533 141.004 34.76 141.004 33C141.004 31.24 140.657 29.7467 139.964 28.52C139.27 27.2933 138.364 26.3867 137.244 25.8C136.124 25.1867 134.91 24.88 133.604 24.88C132.27 24.88 131.044 25.1867 129.924 25.8C128.83 26.3867 127.95 27.2933 127.284 28.52C126.617 29.7467 126.284 31.24 126.284 33C126.284 34.7867 126.604 36.2933 127.244 37.52C127.91 38.7467 128.79 39.6667 129.884 40.28C130.977 40.8667 132.177 41.16 133.484 41.16Z" fill="black"/>
<path d="M15.5703 48H146.444V50H15.5703V48Z" fill="black"/>
<defs>
<clipPath id="clip0_99_188">
<rect width="34.6356" height="37.2315" fill="white" transform="matrix(0.764483 0.644644 -0.717897 0.696149 161.728 18)"/>
</clipPath>
</defs>
</svg>
